<svg width="112" height="112" viewBox="0 0 112 112" fill="none" xmlns="http://www.w3.org/2000/svg">
<mask id="mask0_1_63" style="mask-type:alpha" maskUnits="userSpaceOnUse" x="0" y="0" width="112" height="112">
<rect width="111.581" height="111.581" fill="#D9D9D9"/>
</mask>
<g mask="url(#mask0_1_63)">
<path d="M13.9745 67.3868C13.3367 67.3868 12.7854 67.1588 12.3204 66.7029C11.8555 66.2469 11.623 65.6761 11.623 64.9907C11.623 64.3052 11.8555 63.7345 12.3204 63.2785C12.7854 62.8225 13.3367 62.5945 13.9745 62.5945C14.6719 62.5945 15.253 62.8225 15.718 63.2785C16.1829 63.7345 16.4153 64.3052 16.4153 64.9907C16.4153 65.6761 16.1829 66.2469 15.718 66.7029C15.253 67.1588 14.6719 67.3868 13.9745 67.3868ZM13.9745 48.9867C13.3367 48.9867 12.7854 48.7587 12.3204 48.3027C11.8555 47.8467 11.623 47.2759 11.623 46.5905C11.623 45.905 11.8555 45.3343 12.3204 44.8783C12.7854 44.4224 13.3367 44.1944 13.9745 44.1944C14.6719 44.1944 15.253 44.4224 15.718 44.8783C16.1829 45.3343 16.4153 45.905 16.4153 46.5905C16.4153 47.2759 16.1829 47.8467 15.718 48.3027C15.253 48.7587 14.6719 48.9867 13.9745 48.9867ZM27.9075 87.4767C26.8369 87.4767 25.9354 87.1146 25.2031 86.3904C24.4706 85.6662 24.1044 84.7687 24.1044 83.6981C24.1044 82.6274 24.4665 81.726 25.1907 80.9936C25.915 80.2612 26.8125 79.895 27.8831 79.895C28.9537 79.895 29.8552 80.2571 30.5875 80.9813C31.3199 81.7056 31.6861 82.603 31.6861 83.6737C31.6861 84.7443 31.3241 85.6458 30.5999 86.3781C29.8756 87.1105 28.9781 87.4767 27.9075 87.4767ZM27.9075 68.8263C26.8369 68.8263 25.9354 68.4556 25.2031 67.7142C24.4706 66.9728 24.1044 66.0541 24.1044 64.9581C24.1044 63.8876 24.4665 62.9861 25.1907 62.2537C25.915 61.5213 26.8125 61.1551 27.8831 61.1551C28.9537 61.1551 29.8552 61.5207 30.5875 62.2518C31.3199 62.983 31.6861 63.889 31.6861 64.9698C31.6861 66.0506 31.3241 66.9636 30.5999 67.7086C29.8756 68.4537 28.9781 68.8263 27.9075 68.8263ZM27.9075 50.4261C26.8369 50.4261 25.9354 50.0605 25.2031 49.3293C24.4706 48.5982 24.1044 47.6922 24.1044 46.6114C24.1044 45.5305 24.4665 44.6176 25.1907 43.8726C25.915 43.1274 26.8125 42.7549 27.8831 42.7549C28.9537 42.7549 29.8552 43.1256 30.5875 43.867C31.3199 44.6084 31.6861 45.527 31.6861 46.6229C31.6861 47.6936 31.3241 48.5951 30.5999 49.3275C29.8756 50.0599 28.9781 50.4261 27.9075 50.4261ZM27.9075 31.6861C26.8369 31.6861 25.9354 31.3241 25.2031 30.5999C24.4706 29.8756 24.1044 28.9781 24.1044 27.9075C24.1044 26.8369 24.4665 25.9354 25.1907 25.2031C25.915 24.4706 26.8125 24.1044 27.8831 24.1044C28.9537 24.1044 29.8552 24.4665 30.5875 25.1907C31.3199 25.915 31.6861 26.8125 31.6861 27.8831C31.6861 28.9537 31.3241 29.8552 30.5999 30.5875C29.8756 31.32 28.9781 31.6861 27.9075 31.6861ZM46.6115 70.2389C45.1819 70.2389 43.9463 69.7264 42.9047 68.7012C41.863 67.6761 41.3422 66.4314 41.3422 64.967C41.3422 63.5672 41.8548 62.3464 42.8799 61.3048C43.905 60.2632 45.1498 59.7424 46.6142 59.7424C48.014 59.7424 49.2347 60.2562 50.2764 61.2837C51.318 62.3114 51.8388 63.54 51.8388 64.9696C51.8388 66.3993 51.325 67.6349 50.2974 68.6765C49.2698 69.7181 48.0412 70.2389 46.6115 70.2389ZM46.6115 51.8388C45.1819 51.8388 43.9463 51.325 42.9047 50.2974C41.863 49.2698 41.3422 48.0412 41.3422 46.6115C41.3422 45.1819 41.8548 43.9463 42.8799 42.9047C43.905 41.863 45.1498 41.3422 46.6142 41.3422C48.014 41.3422 49.2347 41.8548 50.2764 42.8799C51.318 43.905 51.8388 45.1498 51.8388 46.6142C51.8388 48.014 51.325 49.2347 50.2974 50.2764C49.2698 51.318 48.0412 51.8388 46.6115 51.8388ZM46.6114 87.4767C45.5305 87.4767 44.6176 87.1146 43.8726 86.3904C43.1274 85.6662 42.7549 84.7687 42.7549 83.6981C42.7549 82.6274 43.1256 81.726 43.867 80.9936C44.6084 80.2612 45.5271 79.895 46.623 79.895C47.6936 79.895 48.5951 80.2571 49.3275 80.9813C50.0599 81.7056 50.4261 82.603 50.4261 83.6737C50.4261 84.7443 50.0605 85.6458 49.3293 86.3781C48.5982 87.1105 47.6922 87.4767 46.6114 87.4767ZM46.6114 31.6861C45.5305 31.6861 44.6176 31.3241 43.8726 30.5999C43.1274 29.8756 42.7549 28.9781 42.7549 27.9075C42.7549 26.8369 43.1256 25.9354 43.867 25.2031C44.6084 24.4706 45.5271 24.1044 46.623 24.1044C47.6936 24.1044 48.5951 24.4665 49.3275 25.1907C50.0599 25.915 50.4261 26.8125 50.4261 27.8831C50.4261 28.9537 50.0605 29.8552 49.3293 30.5875C48.5982 31.32 47.6922 31.6861 46.6114 31.6861ZM46.6352 99.9581C45.9379 99.9581 45.3567 99.7301 44.8918 99.2741C44.4269 98.8182 44.1944 98.2475 44.1944 97.562C44.1944 96.8765 44.4269 96.3058 44.8918 95.8498C45.3567 95.3938 45.9379 95.1658 46.6352 95.1658C47.273 95.1658 47.8244 95.3938 48.2893 95.8498C48.7542 96.3058 48.9867 96.8765 48.9867 97.562C48.9867 98.2475 48.7542 98.8182 48.2893 99.2741C47.8244 99.7301 47.273 99.9581 46.6352 99.9581ZM46.6352 16.4153C45.9379 16.4153 45.3567 16.1873 44.8918 15.7313C44.4269 15.2754 44.1944 14.7047 44.1944 14.0191C44.1944 13.3337 44.4269 12.763 44.8918 12.3071C45.3567 11.8511 45.9379 11.623 46.6352 11.623C47.273 11.623 47.8244 11.8511 48.2893 12.3071C48.7542 12.763 48.9867 13.3337 48.9867 14.0191C48.9867 14.7047 48.7542 15.2754 48.2893 15.7313C47.8244 16.1873 47.273 16.4153 46.6352 16.4153ZM64.967 70.2389C63.5672 70.2389 62.3464 69.7264 61.3048 68.7012C60.2632 67.6761 59.7424 66.4314 59.7424 64.967C59.7424 63.5672 60.2562 62.3464 61.2837 61.3048C62.3114 60.2632 63.54 59.7424 64.9696 59.7424C66.3993 59.7424 67.6349 60.2562 68.6765 61.2837C69.7181 62.3114 70.2389 63.54 70.2389 64.9696C70.2389 66.3993 69.7264 67.6349 68.7012 68.6765C67.6761 69.7181 66.4314 70.2389 64.967 70.2389ZM64.967 51.8388C63.5672 51.8388 62.3464 51.325 61.3048 50.2974C60.2632 49.2698 59.7424 48.0412 59.7424 46.6115C59.7424 45.1819 60.2562 43.9463 61.2837 42.9047C62.3114 41.863 63.54 41.3422 64.9696 41.3422C66.3993 41.3422 67.6349 41.8548 68.6765 42.8799C69.7181 43.905 70.2389 45.1498 70.2389 46.6142C70.2389 48.014 69.7264 49.2347 68.7012 50.2764C67.6761 51.318 66.4314 51.8388 64.967 51.8388ZM64.9583 87.4767C63.8876 87.4767 62.9861 87.1146 62.2537 86.3904C61.5213 85.6662 61.1551 84.7687 61.1551 83.6981C61.1551 82.6274 61.5207 81.726 62.2518 80.9936C62.983 80.2612 63.889 79.895 64.9698 79.895C66.0506 79.895 66.9636 80.2571 67.7086 80.9813C68.4537 81.7056 68.8263 82.603 68.8263 83.6737C68.8263 84.7443 68.4556 85.6458 67.7142 86.3781C66.9728 87.1105 66.0541 87.4767 64.9583 87.4767ZM64.9583 31.6861C63.8876 31.6861 62.9861 31.3241 62.2537 30.5999C61.5213 29.8756 61.1551 28.9781 61.1551 27.9075C61.1551 26.8369 61.5207 25.9354 62.2518 25.2031C62.983 24.4706 63.889 24.1044 64.9698 24.1044C66.0506 24.1044 66.9636 24.4665 67.7086 25.1907C68.4537 25.915 68.8263 26.8125 68.8263 27.8831C68.8263 28.9537 68.4556 29.8552 67.7142 30.5875C66.9728 31.32 66.0541 31.6861 64.9583 31.6861ZM65.2857 99.9581C64.648 99.9581 64.0966 99.7301 63.6317 99.2741C63.1668 98.8182 62.9343 98.2475 62.9343 97.562C62.9343 96.8765 63.1668 96.3058 63.6317 95.8498C64.0966 95.3938 64.648 95.1658 65.2857 95.1658C65.9831 95.1658 66.5642 95.3938 67.0291 95.8498C67.494 96.3058 67.7265 96.8765 67.7265 97.562C67.7265 98.2475 67.494 98.8182 67.0291 99.2741C66.5642 99.7301 65.9831 99.9581 65.2857 99.9581ZM64.9459 16.4153C64.3081 16.4153 63.7568 16.1873 63.2919 15.7313C62.8269 15.2754 62.5945 14.7047 62.5945 14.0191C62.5945 13.3337 62.8269 12.763 63.2919 12.3071C63.7568 11.8511 64.3081 11.623 64.9459 11.623C65.6433 11.623 66.2245 11.8511 66.6894 12.3071C67.1543 12.763 67.3868 13.3337 67.3868 14.0191C67.3868 14.7047 67.1543 15.2754 66.6894 15.7313C66.2245 16.1873 65.6433 16.4153 64.9459 16.4153ZM83.6981 87.4767C82.6274 87.4767 81.726 87.1146 80.9936 86.3904C80.2612 85.6662 79.895 84.7687 79.895 83.6981C79.895 82.6274 80.2571 81.726 80.9813 80.9936C81.7056 80.2612 82.603 79.895 83.6737 79.895C84.7443 79.895 85.6458 80.2571 86.3781 80.9813C87.1105 81.7056 87.4767 82.603 87.4767 83.6737C87.4767 84.7443 87.1146 85.6458 86.3904 86.3781C85.6662 87.1105 84.7687 87.4767 83.6981 87.4767ZM83.6981 68.8263C82.6274 68.8263 81.726 68.4556 80.9936 67.7142C80.2612 66.9728 79.895 66.0541 79.895 64.9581C79.895 63.8876 80.2571 62.9861 80.9813 62.2537C81.7056 61.5213 82.603 61.1551 83.6737 61.1551C84.7443 61.1551 85.6458 61.5207 86.3781 62.2518C87.1105 62.983 87.4767 63.889 87.4767 64.9698C87.4767 66.0506 87.1146 66.9636 86.3904 67.7086C85.6662 68.4537 84.7687 68.8263 83.6981 68.8263ZM83.6981 50.4261C82.6274 50.4261 81.726 50.0605 80.9936 49.3293C80.2612 48.5982 79.895 47.6922 79.895 46.6114C79.895 45.5305 80.2571 44.6176 80.9813 43.8726C81.7056 43.1274 82.603 42.7549 83.6737 42.7549C84.7443 42.7549 85.6458 43.1256 86.3781 43.867C87.1105 44.6084 87.4767 45.527 87.4767 46.6229C87.4767 47.6936 87.1146 48.5951 86.3904 49.3275C85.6662 50.0599 84.7687 50.4261 83.6981 50.4261ZM83.6981 31.6861C82.6274 31.6861 81.726 31.3241 80.9936 30.5999C80.2612 29.8756 79.895 28.9781 79.895 27.9075C79.895 26.8369 80.2571 25.9354 80.9813 25.2031C81.7056 24.4706 82.603 24.1044 83.6737 24.1044C84.7443 24.1044 85.6458 24.4665 86.3781 25.1907C87.1105 25.915 87.4767 26.8125 87.4767 27.8831C87.4767 28.9537 87.1146 29.8552 86.3904 30.5875C85.6662 31.32 84.7687 31.6861 83.6981 31.6861ZM97.6067 67.3868C96.9093 67.3868 96.3281 67.1588 95.8632 66.7029C95.3983 66.2469 95.1658 65.6761 95.1658 64.9907C95.1658 64.3052 95.3983 63.7345 95.8632 63.2785C96.3281 62.8225 96.9093 62.5945 97.6067 62.5945C98.2445 62.5945 98.7958 62.8225 99.2607 63.2785C99.7257 63.7345 99.9581 64.3052 99.9581 64.9907C99.9581 65.6761 99.7257 66.2469 99.2607 66.7029C98.7958 67.1588 98.2445 67.3868 97.6067 67.3868ZM97.6067 48.9867C96.9093 48.9867 96.3281 48.7587 95.8632 48.3027C95.3983 47.8467 95.1658 47.2759 95.1658 46.5905C95.1658 45.905 95.3983 45.3343 95.8632 44.8783C96.3281 44.4224 96.9093 44.1944 97.6067 44.1944C98.2445 44.1944 98.7958 44.4224 99.2607 44.8783C99.7257 45.3343 99.9581 45.905 99.9581 46.5905C99.9581 47.2759 99.7257 47.8467 99.2607 48.3027C98.7958 48.7587 98.2445 48.9867 97.6067 48.9867Z" fill="#00B3FF"/>
</g>
</svg>
