<svg width="213" height="47" viewBox="0 0 213 47" fill="none" xmlns="http://www.w3.org/2000/svg">
<path d="M14.8885 39.3605L13.4895 33.3778C13.3658 32.8502 13.7096 32.3251 14.243 32.2311C21.2519 30.9954 25.4663 26.8618 25.4663 21.9757C25.4663 17.0895 21.4589 12.8851 14.196 11.928C13.6535 11.8562 13.2875 11.3369 13.3971 10.801L14.6576 4.63042C14.759 4.13414 15.2331 3.80603 15.7335 3.88434C27.5734 5.73841 34.0762 13.6114 34.0762 21.9757C34.0762 30.34 28.1183 38.3217 15.9486 40.081C15.4614 40.1511 14.9997 39.8394 14.8876 39.3596L14.8885 39.3605Z" fill="url(#paint0_linear_1_3)"/>
<path d="M1.78782 15.5518L12.5396 20.1198C12.8941 20.2706 13.3038 20.1049 13.4546 19.7504C14.6731 16.8815 13.3359 13.5675 10.467 12.349L4.26842 9.71509C3.91393 9.56423 3.50421 9.72993 3.35334 10.0844L1.41931 14.6367C1.26845 14.9912 1.43415 15.4009 1.78864 15.5518H1.78782Z" fill="#FFAD4D"/>
<path d="M0.340488 26.4619L11.3478 31.1387C11.6314 31.2591 11.9595 31.1272 12.0807 30.8428C13.3296 27.903 11.9587 24.5081 9.01971 23.2592L2.82109 20.6252C2.5375 20.5049 2.20939 20.6368 2.0882 20.9212L0.0445309 25.7299C-0.0758306 26.0135 0.0560724 26.3416 0.340488 26.4627V26.4619Z" fill="#00B3FF"/>
<path d="M50.6472 40.6439C46.6408 40.6439 43.493 39.6959 41.2037 37.8001C38.9501 35.9043 37.8234 33.0605 37.8234 29.2688V24.0641C37.8234 20.2724 38.9501 17.4287 41.2037 15.5328C43.4572 13.637 46.6051 12.6891 50.6472 12.6891C54.6893 12.6891 57.8371 13.637 60.0906 15.5328C62.3442 17.4287 63.471 20.2724 63.471 24.0641V29.2688C63.471 33.0605 62.3442 35.9043 60.0906 37.8001C57.8371 39.6959 54.6893 40.6439 50.6472 40.6439ZM50.6472 33.4003C52.1138 33.4003 53.1869 33.0247 53.8665 32.2735C54.5462 31.5223 54.886 30.2525 54.886 28.4639V24.8153C54.886 23.0626 54.5462 21.8106 53.8665 21.0594C53.1869 20.3082 52.1138 19.9326 50.6472 19.9326C49.1806 19.9326 48.1074 20.3082 47.4278 21.0594C46.7482 21.8106 46.4083 23.0626 46.4083 24.8153V28.4639C46.4083 30.2525 46.7482 31.5223 47.4278 32.2735C48.1074 33.0247 49.1806 33.4003 50.6472 33.4003ZM68.7175 40C68.2167 40 67.9663 39.7496 67.9663 39.2488V20.2546C67.9663 19.1099 67.9306 18.0368 67.859 17.0352C67.8233 15.9978 67.7696 15.032 67.6981 14.1378C67.6265 13.6012 67.859 13.3329 68.3956 13.3329H74.5124C74.727 13.3329 74.888 13.3687 74.9953 13.4402C75.1384 13.5118 75.2278 13.6549 75.2636 13.8695C75.3709 14.3345 75.4603 14.8532 75.5319 15.4255C75.6392 15.9978 75.7107 16.5702 75.7465 17.1425C76.8911 15.9978 78.1431 14.9784 79.5024 14.0841C80.8617 13.1541 82.525 12.6891 84.4924 12.6891C86.424 12.6891 87.8906 13.0468 88.8922 13.7622C89.8938 14.4418 90.6271 15.5149 91.0921 16.9815C92.201 15.8369 93.4709 14.8353 94.9017 13.9768C96.3683 13.1183 98.0316 12.6891 99.8917 12.6891C102.396 12.6891 104.274 13.3866 105.526 14.7816C106.778 16.1767 107.404 18.3766 107.404 21.3813V39.2488C107.404 39.7496 107.153 40 106.652 40H99.5698C99.069 40 98.8186 39.7496 98.8186 39.2488V23.4203C98.8186 22.2756 98.6219 21.435 98.2284 20.8984C97.8349 20.3261 97.1553 20.0399 96.1894 20.0399C95.4025 20.0399 94.6692 20.2367 93.9895 20.6301C93.3457 21.0236 92.6839 21.5423 92.0043 22.1862V39.2488C92.0043 39.7496 91.7539 40 91.2531 40H84.1705C83.6697 40 83.4193 39.7496 83.4193 39.2488V23.4203C83.4193 22.2756 83.2047 21.435 82.7754 20.8984C82.3819 20.3261 81.7023 20.0399 80.7365 20.0399C79.9853 20.0399 79.2699 20.2367 78.5902 20.6301C77.9106 21.0236 77.231 21.5423 76.5513 22.1862V39.2488C76.5513 39.7496 76.3009 40 75.8001 40H68.7175ZM113.413 40C112.913 40 112.662 39.7496 112.662 39.2488V14.0305C112.662 13.5654 112.913 13.3329 113.413 13.3329H120.496C120.997 13.3329 121.247 13.5654 121.247 14.0305V39.2488C121.247 39.7496 120.997 40 120.496 40H113.413ZM116.955 10.2745C115.524 10.2745 114.397 9.91682 113.574 9.2014C112.752 8.45022 112.34 7.44864 112.34 6.19666V5.06988C112.34 3.78214 112.752 2.79844 113.574 2.1188C114.397 1.40339 115.524 1.04568 116.955 1.04568C118.421 1.04568 119.548 1.40339 120.335 2.1188C121.158 2.79844 121.569 3.78214 121.569 5.06988V6.19666C121.569 7.44864 121.158 8.45022 120.335 9.2014C119.548 9.91682 118.421 10.2745 116.955 10.2745ZM138.622 40.6439C134.544 40.6439 131.396 39.6781 129.178 37.7464C126.996 35.7791 125.905 32.9711 125.905 29.3224V24.0105C125.905 20.3619 127.014 17.5718 129.232 15.6401C131.45 13.6727 134.58 12.6891 138.622 12.6891C141.376 12.6891 143.665 13.1541 145.49 14.0841C147.35 14.9784 148.727 16.1946 149.621 17.7327C150.516 19.2709 150.873 20.9879 150.694 22.8837C150.659 23.4918 150.408 23.7959 149.943 23.7959H143.397C143.218 23.7959 143.057 23.7243 142.914 23.5812C142.771 23.4382 142.7 23.2593 142.7 23.0447C142.7 21.9716 142.342 21.1846 141.627 20.6838C140.911 20.183 139.945 19.9326 138.729 19.9326C137.298 19.9326 136.225 20.3082 135.51 21.0594C134.83 21.7748 134.49 23.0268 134.49 24.8153V28.4639C134.49 30.2525 134.83 31.5223 135.51 32.2735C136.225 32.9889 137.28 33.3466 138.675 33.3466C140.035 33.3466 141.036 33.0605 141.68 32.4881C142.324 31.9158 142.646 31.1646 142.646 30.2346C142.646 29.7338 142.878 29.4834 143.344 29.4834H149.89C150.355 29.4834 150.605 29.7338 150.641 30.2346C150.82 33.3824 149.89 35.9043 147.851 37.8001C145.847 39.6959 142.771 40.6439 138.622 40.6439ZM167.548 40.6439C163.542 40.6439 160.394 39.6959 158.105 37.8001C155.851 35.9043 154.724 33.0605 154.724 29.2688V24.0641C154.724 20.2724 155.851 17.4287 158.105 15.5328C160.358 13.637 163.506 12.6891 167.548 12.6891C171.59 12.6891 174.738 13.637 176.992 15.5328C179.245 17.4287 180.372 20.2724 180.372 24.0641V29.2688C180.372 33.0605 179.245 35.9043 176.992 37.8001C174.738 39.6959 171.59 40.6439 167.548 40.6439ZM167.548 33.4003C169.015 33.4003 170.088 33.0247 170.768 32.2735C171.447 31.5223 171.787 30.2525 171.787 28.4639V24.8153C171.787 23.0626 171.447 21.8106 170.768 21.0594C170.088 20.3082 169.015 19.9326 167.548 19.9326C166.082 19.9326 165.009 20.3082 164.329 21.0594C163.649 21.8106 163.309 23.0626 163.309 24.8153V28.4639C163.309 30.2525 163.649 31.5223 164.329 32.2735C165.009 33.0247 166.082 33.4003 167.548 33.4003ZM201.93 40C201.429 40 201.179 39.7496 201.179 39.2488V23.4203C201.179 22.2756 200.946 21.435 200.481 20.8984C200.052 20.3261 199.337 20.0399 198.335 20.0399C197.298 20.0399 196.278 20.3619 195.277 21.0057C194.311 21.6138 193.363 22.3829 192.433 23.313L191.843 18.001C192.665 17.1067 193.578 16.2661 194.579 15.4792C195.581 14.6564 196.69 13.9947 197.906 13.4939C199.158 12.9573 200.553 12.6891 202.091 12.6891C204.631 12.6891 206.545 13.3866 207.832 14.7816C209.12 16.1767 209.764 18.3945 209.764 21.435V39.2488C209.764 39.7496 209.513 40 209.013 40H201.93ZM185.619 40C185.118 40 184.867 39.7496 184.867 39.2488V20.2546C184.867 19.1099 184.832 18.0189 184.76 16.9815C184.724 15.9442 184.671 14.9963 184.599 14.1378C184.528 13.6012 184.76 13.3329 185.297 13.3329H191.413C191.628 13.3329 191.807 13.3687 191.95 13.4402C192.093 13.5118 192.183 13.6727 192.218 13.9231C192.29 14.2808 192.361 14.7101 192.433 15.2109C192.504 15.6759 192.576 16.1767 192.648 16.7133C192.719 17.214 192.755 17.697 192.755 18.162L193.452 21.3277V39.2488C193.452 39.7496 193.202 40 192.701 40H185.619Z" fill="white"/>
<defs>
<linearGradient id="paint0_linear_1_3" x1="23.727" y1="9.68179" x2="23.727" y2="40.0176" gradientUnits="userSpaceOnUse">
<stop stop-color="#FFAD4D"/>
<stop offset="0.307292" stop-color="#B2E39A"/>
<stop offset="0.572828" stop-color="#86E1D1"/>
<stop offset="1" stop-color="#00B3FF"/>
</linearGradient>
</defs>
</svg>
