<svg width="810" height="198" viewBox="0 0 810 198" fill="none" xmlns="http://www.w3.org/2000/svg">
<path d="M20.0708 71C19.1021 71 18.6177 70.481 18.6177 69.443V19.6203H2.11392C1.07595 19.6203 0.556959 19.136 0.556959 18.1672V4.56974C0.556959 3.53177 1.07595 3.01278 2.11392 3.01278H54.4277C55.3965 3.01278 55.8809 3.53177 55.8809 4.56974V18.1672C55.8809 19.136 55.3965 19.6203 54.4277 19.6203H37.924V69.443C37.924 70.481 37.405 71 36.367 71H20.0708ZM93.9323 71C92.8944 71 92.3754 70.481 92.3754 69.443V39.4456C92.3754 37.5773 92.0294 36.1933 91.3374 35.2937C90.6454 34.325 89.4345 33.8406 87.7045 33.8406C85.9053 33.8406 84.1408 34.3942 82.4108 35.5013C80.6809 36.6085 79.2277 37.7849 78.0514 39.0304L76.4944 28.1317C77.9476 26.6094 79.6083 25.087 81.4767 23.5646C83.345 21.9731 85.4902 20.6237 87.9121 19.5166C90.4032 18.4094 93.2404 17.8558 96.4235 17.8558C101.337 17.8558 105.004 19.2052 107.426 21.9039C109.848 24.5334 111.059 28.7891 111.059 34.671V69.443C111.059 70.481 110.54 71 109.502 71H93.9323ZM62.897 71C61.859 71 61.34 70.481 61.34 69.443V1.66342C61.34 0.625446 61.859 0.10646 62.897 0.10646H78.4665C79.5045 0.10646 80.0235 0.625446 80.0235 1.66342V69.443C80.0235 70.481 79.5045 71 78.4665 71H62.897ZM144.427 72.2456C135.362 72.2456 128.788 70.4464 124.706 66.8481C120.692 63.1806 118.686 57.7485 118.686 50.5519V40.5874C118.686 33.114 120.692 27.4743 124.706 23.6684C128.788 19.7933 135.224 17.8558 144.012 17.8558C152.454 17.8558 158.786 19.6895 163.007 23.3571C167.228 26.9554 169.339 32.3874 169.339 39.6532V47.7494C169.339 48.7874 168.82 49.3064 167.782 49.3064H137.058V52.2127C137.058 54.2886 137.577 55.9148 138.615 57.0912C139.653 58.1983 141.383 58.7519 143.804 58.7519C145.742 58.7519 147.299 58.4751 148.475 57.9215C149.652 57.2988 150.24 56.3646 150.24 55.119C150.24 54.2194 150.759 53.7697 151.797 53.7697H166.64C167.678 53.7697 168.197 54.2886 168.197 55.3266C168.197 61.2085 166.294 65.4987 162.488 68.1975C158.751 70.8962 152.731 72.2456 144.427 72.2456ZM137.058 39.757H151.174V39.3418C151.174 36.5047 150.621 34.498 149.513 33.3216C148.475 32.076 146.711 31.4532 144.22 31.4532C141.59 31.4532 139.722 32.076 138.615 33.3216C137.577 34.498 137.058 36.5047 137.058 39.3418V39.757ZM198.011 71C197.527 71 197.146 70.8616 196.869 70.5848C196.592 70.308 196.454 69.9274 196.454 69.443L197.803 4.56974C197.803 3.53177 198.322 3.01278 199.36 3.01278H217.214C218.044 3.01278 218.632 3.39337 218.978 4.15455L234.651 36.3317L250.325 4.15455C250.74 3.39337 251.363 3.01278 252.193 3.01278H270.046C271.015 3.01278 271.499 3.53177 271.499 4.56974L272.849 69.443C272.849 69.9274 272.71 70.308 272.434 70.5848C272.157 70.8616 271.811 71 271.396 71H255.515C254.477 71 253.958 70.481 253.958 69.443L253.543 51.1747C253.473 48.13 253.508 44.9123 253.646 41.5216C253.785 38.1309 253.923 34.9477 254.062 31.9722H253.646C252.401 34.8094 251.017 37.8541 249.494 41.1064C248.041 44.2895 246.519 47.2996 244.927 50.1367L236.935 64.7722C236.589 65.4641 235.966 65.8101 235.067 65.8101H234.236C233.406 65.8101 232.818 65.4641 232.472 64.7722L224.479 50.1367C222.957 47.2996 221.435 44.2895 219.912 41.1064C218.39 37.8541 217.006 34.8094 215.76 31.9722H215.345C215.484 35.0169 215.622 38.2347 215.76 41.6254C215.899 45.0161 215.933 48.2338 215.864 51.2785L215.449 69.443C215.449 70.481 214.93 71 213.892 71H198.011ZM306.002 72.2456C298.045 72.2456 291.747 70.3772 287.111 66.6405C282.544 62.9038 280.261 57.2988 280.261 49.8254V40.276C280.261 32.8718 282.544 27.3013 287.111 23.5646C291.747 19.7587 298.045 17.8558 306.002 17.8558C314.029 17.8558 320.326 19.7587 324.893 23.5646C329.461 27.3013 331.744 32.8718 331.744 40.276V49.8254C331.744 57.2988 329.461 62.9038 324.893 66.6405C320.326 70.3772 314.029 72.2456 306.002 72.2456ZM306.002 56.5722C308.424 56.5722 310.189 55.9494 311.296 54.7038C312.472 53.4583 313.061 51.2785 313.061 48.1646V41.9368C313.061 38.8228 312.472 36.6431 311.296 35.3975C310.189 34.152 308.424 33.5292 306.002 33.5292C303.65 33.5292 301.885 34.152 300.709 35.3975C299.532 36.6431 298.944 38.8228 298.944 41.9368V48.1646C298.944 51.2785 299.532 53.4583 300.709 54.7038C301.885 55.9494 303.65 56.5722 306.002 56.5722ZM359.727 72.2456C351.7 72.2456 345.957 70.9308 342.497 68.3013C339.106 65.6025 337.722 61.2777 338.345 55.3266C338.483 54.2886 339.037 53.7697 340.006 53.7697H354.018C354.987 53.7697 355.471 54.3232 355.471 55.4304C355.471 56.8144 355.852 57.9215 356.613 58.7519C357.374 59.5131 358.412 59.8937 359.727 59.8937C361.388 59.8937 362.564 59.6515 363.256 59.1671C364.017 58.6135 364.398 57.7485 364.398 56.5722C364.398 55.6034 364.052 54.8422 363.36 54.2886C362.668 53.6659 361.388 52.9739 359.52 52.2127L347.479 47.0228C344.296 45.6389 341.978 43.8743 340.525 41.7292C339.071 39.5148 338.345 36.6085 338.345 33.0102C338.345 27.8895 340.04 24.0836 343.431 21.5925C346.891 19.1014 352.427 17.8558 360.039 17.8558C367.858 17.8558 373.498 19.136 376.957 21.6963C380.417 24.2566 382.147 28.2355 382.147 33.633C382.147 34.671 381.594 35.1899 380.487 35.1899H366.474C365.99 35.1899 365.609 35.0515 365.332 34.7748C365.125 34.4288 365.021 34.0136 365.021 33.5292C365.021 32.422 364.675 31.5916 363.983 31.038C363.36 30.4845 362.357 30.2077 360.973 30.2077C359.589 30.2077 358.585 30.4499 357.963 30.9343C357.34 31.3494 357.028 32.0414 357.028 33.0102C357.028 33.7022 357.305 34.325 357.859 34.8785C358.482 35.4321 359.589 36.0549 361.18 36.7469L373.117 41.6254C376.646 43.0785 379.172 44.9123 380.694 47.1266C382.286 49.2718 383.082 52.2127 383.082 55.9494C383.082 61.4161 381.144 65.4987 377.269 68.1975C373.394 70.8962 367.547 72.2456 359.727 72.2456ZM414.771 72.2456C409.858 72.2456 405.914 71.5882 402.938 70.2734C400.032 68.9587 397.922 66.8135 396.607 63.838C395.361 60.7933 394.738 56.7452 394.738 51.6937V34.4634H387.68C386.642 34.4634 386.123 33.9444 386.123 32.9064V20.6583C386.123 19.6203 386.642 19.1014 387.68 19.1014H395.361L397.23 6.74949C397.437 5.78071 397.991 5.29633 398.89 5.29633H411.865C412.903 5.29633 413.422 5.81531 413.422 6.85328V19.1014H425.255C426.293 19.1014 426.812 19.6203 426.812 20.6583V32.9064C426.812 33.9444 426.293 34.4634 425.255 34.4634H413.422V50.2405C413.422 52.1781 413.803 53.7005 414.564 54.8076C415.394 55.8456 416.674 56.3646 418.404 56.3646C419.373 56.3646 420.411 56.2954 421.518 56.157C422.625 55.9494 423.836 55.638 425.151 55.2228C425.705 55.0152 426.12 55.0498 426.397 55.3266C426.743 55.5342 426.916 55.9148 426.916 56.4684V68.8203C426.916 69.6506 426.5 70.2388 425.67 70.5848C424.148 71.1384 422.383 71.5536 420.376 71.8304C418.439 72.1072 416.57 72.2456 414.771 72.2456ZM477.415 72.2456C470.979 72.2456 465.72 71.4844 461.637 69.962C457.555 68.3705 454.648 65.9831 452.918 62.8C451.188 59.5477 450.566 55.3958 451.05 50.3443C451.188 49.3064 451.742 48.7874 452.711 48.7874H468.488C469.526 48.7874 470.01 49.2372 469.941 50.1367C469.803 51.8667 470.391 53.2853 471.706 54.3924C473.021 55.4304 475.062 55.9494 477.83 55.9494C480.667 55.9494 482.674 55.6726 483.85 55.119C485.096 54.4962 485.718 53.5275 485.718 52.2127C485.718 51.6591 485.545 51.1401 485.199 50.6557C484.923 50.1713 484.404 49.687 483.642 49.2026C482.881 48.7182 481.809 48.1992 480.425 47.6456L465.686 41.1064C462.018 39.4456 459.146 37.6811 457.07 35.8127C455.064 33.9444 453.645 31.8338 452.815 29.4811C452.053 27.0592 451.673 24.2566 451.673 21.0735C451.742 14.9841 453.853 10.244 458.005 6.85328C462.156 3.46257 468.453 1.76721 476.896 1.76721C483.262 1.76721 488.486 2.56299 492.569 4.15455C496.721 5.67691 499.696 7.99505 501.496 11.109C503.364 14.2229 504.056 18.2018 503.572 23.0457C503.502 24.1528 502.983 24.7064 502.015 24.7064H486.134C485.649 24.7064 485.269 24.568 484.992 24.2912C484.715 23.9452 484.611 23.53 484.68 23.0457C484.819 21.5925 484.231 20.3469 482.916 19.309C481.67 18.2018 479.837 17.6482 477.415 17.6482C475.269 17.6482 473.643 17.9942 472.536 18.6862C471.498 19.3782 470.979 20.3815 470.979 21.6963C470.979 22.2499 471.152 22.8035 471.498 23.3571C471.844 23.8414 472.398 24.3258 473.159 24.8102C473.92 25.2946 474.958 25.8136 476.273 26.3672L490.908 32.6988C494.576 34.2904 497.447 36.0203 499.523 37.8887C501.599 39.757 503.053 41.9022 503.883 44.3241C504.713 46.746 505.094 49.5486 505.025 52.7317C504.955 59.2363 502.741 64.1148 498.382 67.3671C494.091 70.6194 487.102 72.2456 477.415 72.2456ZM537.316 72.2456C528.251 72.2456 521.677 70.4464 517.595 66.8481C513.581 63.1806 511.574 57.7485 511.574 50.5519V40.5874C511.574 33.114 513.581 27.4743 517.595 23.6684C521.677 19.7933 528.113 17.8558 536.901 17.8558C545.343 17.8558 551.675 19.6895 555.896 23.3571C560.117 26.9554 562.228 32.3874 562.228 39.6532V47.7494C562.228 48.7874 561.709 49.3064 560.671 49.3064H529.947V52.2127C529.947 54.2886 530.466 55.9148 531.504 57.0912C532.541 58.1983 534.271 58.7519 536.693 58.7519C538.631 58.7519 540.188 58.4751 541.364 57.9215C542.541 57.2988 543.129 56.3646 543.129 55.119C543.129 54.2194 543.648 53.7697 544.686 53.7697H559.529C560.567 53.7697 561.086 54.2886 561.086 55.3266C561.086 61.2085 559.183 65.4987 555.377 68.1975C551.64 70.8962 545.62 72.2456 537.316 72.2456ZM529.947 39.757H544.063V39.3418C544.063 36.5047 543.509 34.498 542.402 33.3216C541.364 32.076 539.6 31.4532 537.109 31.4532C534.479 31.4532 532.611 32.076 531.504 33.3216C530.466 34.498 529.947 36.5047 529.947 39.3418V39.757ZM594.585 72.2456C586.419 72.2456 580.088 70.308 575.59 66.4329C571.161 62.5578 568.947 57.022 568.947 49.8254V40.276C568.947 33.0794 571.161 27.5435 575.59 23.6684C580.088 19.7933 586.385 17.8558 594.481 17.8558C600.155 17.8558 604.861 18.8246 608.597 20.7621C612.334 22.6997 615.067 25.26 616.797 28.4431C618.596 31.6262 619.288 35.1207 618.873 38.9266C618.735 40.0338 618.181 40.5874 617.213 40.5874H603.096C602.681 40.5874 602.3 40.449 601.954 40.1722C601.678 39.8954 601.539 39.5494 601.539 39.1342C601.539 37.1967 600.916 35.7781 599.671 34.8785C598.494 33.979 596.868 33.5292 594.792 33.5292C592.37 33.5292 590.571 34.152 589.395 35.3975C588.218 36.6431 587.63 38.8574 587.63 42.0406V47.957C587.63 51.1401 588.218 53.3545 589.395 54.6C590.571 55.8456 592.336 56.4684 594.689 56.4684C597.11 56.4684 598.84 55.984 599.878 55.0152C600.916 53.9772 601.435 52.5933 601.435 50.8633C601.435 49.8946 601.954 49.4102 602.992 49.4102H617.109C618.077 49.4102 618.631 49.9638 618.769 51.0709C619.185 57.4372 617.351 62.5578 613.268 66.4329C609.255 70.308 603.027 72.2456 594.585 72.2456ZM641.08 72.2456C636.236 72.2456 632.603 70.9308 630.181 68.3013C627.76 65.6025 626.549 61.3123 626.549 55.4304V20.6583C626.549 19.6203 627.068 19.1014 628.106 19.1014H643.675C644.713 19.1014 645.232 19.6203 645.232 20.6583V50.6557C645.232 52.5241 645.543 53.9426 646.166 54.9114C646.858 55.811 647.862 56.2608 649.176 56.2608C650.976 56.2608 652.74 55.6726 654.47 54.4962C656.269 53.2507 657.722 52.0051 658.83 50.7595L660.386 61.6582C658.933 63.1114 657.307 64.6684 655.508 66.3291C653.709 67.9899 651.633 69.4084 649.28 70.5848C646.927 71.692 644.194 72.2456 641.08 72.2456ZM661.009 71C660.525 71 660.144 70.9308 659.867 70.7924C659.66 70.5848 659.487 70.2388 659.349 69.7544C659.072 68.6473 658.83 67.4017 658.622 66.0177C658.484 64.6338 658.345 63.2498 658.207 61.8658L656.546 54.9114V20.6583C656.546 19.6203 657.065 19.1014 658.103 19.1014H673.673C674.711 19.1014 675.229 19.6203 675.229 20.6583V57.4026C675.229 59.6861 675.264 61.7966 675.333 63.7342C675.472 65.6717 675.61 67.5401 675.748 69.3392C675.887 70.4464 675.402 71 674.295 71H661.009ZM685.478 71C684.44 71 683.921 70.481 683.921 69.443V32.6988C683.921 30.4153 683.852 28.3047 683.713 26.3672C683.644 24.4296 683.54 22.5613 683.402 20.7621C683.264 19.6549 683.748 19.1014 684.855 19.1014H698.245C698.66 19.1014 699.006 19.2052 699.283 19.4128C699.56 19.5511 699.733 19.8625 699.802 20.3469C700.079 21.4541 700.286 22.6997 700.425 24.0836C700.632 25.4676 700.771 26.8516 700.84 28.2355L702.604 35.1899V69.443C702.604 70.481 702.085 71 701.047 71H685.478ZM701.566 42.6633L700.217 28.0279C701.601 26.0904 703.123 24.3604 704.784 22.8381C706.514 21.3157 708.244 20.1047 709.974 19.2052C711.773 18.3056 713.434 17.8558 714.956 17.8558C715.994 17.8558 716.894 17.9942 717.655 18.271C718.139 18.4094 718.451 18.6516 718.589 18.9976C718.728 19.2744 718.797 19.6549 718.797 20.1393C718.797 22.1461 718.762 24.4642 718.693 27.0938C718.693 29.7233 718.589 32.1798 718.382 34.4634C718.312 35.0169 718.139 35.4321 717.863 35.7089C717.655 35.9165 717.24 35.9857 716.617 35.9165C716.34 35.8473 715.89 35.7781 715.268 35.7089C714.645 35.6397 714.057 35.6051 713.503 35.6051C712.327 35.6051 711.047 35.8473 709.663 36.3317C708.279 36.8161 706.895 37.5773 705.511 38.6153C704.127 39.584 702.812 40.9334 701.566 42.6633ZM748.56 72.2456C739.495 72.2456 732.921 70.4464 728.838 66.8481C724.825 63.1806 722.818 57.7485 722.818 50.5519V40.5874C722.818 33.114 724.825 27.4743 728.838 23.6684C732.921 19.7933 739.356 17.8558 748.145 17.8558C756.587 17.8558 762.918 19.6895 767.14 23.3571C771.361 26.9554 773.471 32.3874 773.471 39.6532V47.7494C773.471 48.7874 772.952 49.3064 771.914 49.3064H741.19V52.2127C741.19 54.2886 741.709 55.9148 742.747 57.0912C743.785 58.1983 745.515 58.7519 747.937 58.7519C749.875 58.7519 751.432 58.4751 752.608 57.9215C753.784 57.2988 754.372 56.3646 754.372 55.119C754.372 54.2194 754.891 53.7697 755.929 53.7697H770.772C771.81 53.7697 772.329 54.2886 772.329 55.3266C772.329 61.2085 770.426 65.4987 766.621 68.1975C762.884 70.8962 756.864 72.2456 748.56 72.2456ZM741.19 39.757H755.307V39.3418C755.307 36.5047 754.753 34.498 753.646 33.3216C752.608 32.076 750.843 31.4532 748.352 31.4532C745.723 31.4532 743.854 32.076 742.747 33.3216C741.709 34.498 741.19 36.5047 741.19 39.3418V39.757Z" fill="white"/>
<path d="M4.70885 178C4.22446 178 3.84387 177.862 3.56708 177.585C3.29029 177.308 3.15189 176.927 3.15189 176.443L4.50126 111.57C4.50126 110.532 5.02024 110.013 6.05821 110.013H23.9113C24.7417 110.013 25.3299 110.393 25.6759 111.155L41.3493 143.332L57.0227 111.155C57.4379 110.393 58.0606 110.013 58.891 110.013H76.7442C77.7129 110.013 78.1973 110.532 78.1973 111.57L79.5467 176.443C79.5467 176.927 79.4083 177.308 79.1315 177.585C78.8547 177.862 78.5087 178 78.0935 178H62.2125C61.1746 178 60.6556 177.481 60.6556 176.443L60.2404 158.175C60.1712 155.13 60.2058 151.912 60.3442 148.522C60.4826 145.131 60.621 141.948 60.7594 138.972H60.3442C59.0986 141.809 57.7147 144.854 56.1923 148.106C54.7391 151.29 53.2168 154.3 51.6252 157.137L43.6328 171.772C43.2868 172.464 42.6641 172.81 41.7645 172.81H40.9341C40.1037 172.81 39.5155 172.464 39.1695 171.772L31.1772 157.137C29.6548 154.3 28.1324 151.29 26.6101 148.106C25.0877 144.854 23.7038 141.809 22.4582 138.972H22.043C22.1814 142.017 22.3198 145.235 22.4582 148.625C22.5966 152.016 22.6312 155.234 22.562 158.279L22.1468 176.443C22.1468 177.481 21.6278 178 20.5898 178H4.70885ZM112.7 179.246C104.742 179.246 98.4454 177.377 93.8091 173.641C89.242 169.904 86.9585 164.299 86.9585 156.825V147.276C86.9585 139.872 89.242 134.301 93.8091 130.565C98.4454 126.759 104.742 124.856 112.7 124.856C120.727 124.856 127.024 126.759 131.591 130.565C136.158 134.301 138.442 139.872 138.442 147.276V156.825C138.442 164.299 136.158 169.904 131.591 173.641C127.024 177.377 120.727 179.246 112.7 179.246ZM112.7 163.572C115.122 163.572 116.887 162.949 117.994 161.704C119.17 160.458 119.758 158.279 119.758 155.165V148.937C119.758 145.823 119.17 143.643 117.994 142.398C116.887 141.152 115.122 140.529 112.7 140.529C110.347 140.529 108.583 141.152 107.407 142.398C106.23 143.643 105.642 145.823 105.642 148.937V155.165C105.642 158.279 106.23 160.458 107.407 161.704C108.583 162.949 110.347 163.572 112.7 163.572ZM159.681 179.246C154.837 179.246 151.169 177.931 148.678 175.301C146.256 172.603 145.045 168.312 145.045 162.43V146.03C145.045 138.28 146.602 132.814 149.716 129.63C152.899 126.447 157.328 124.856 163.002 124.856C165.078 124.856 167.5 125.133 170.268 125.686C173.036 126.24 175.423 127.07 177.43 128.177L177.638 142.086C176.254 141.256 174.835 140.668 173.382 140.322C171.929 139.976 170.614 139.803 169.438 139.803C167.5 139.803 166.047 140.495 165.078 141.879C164.178 143.193 163.729 145.062 163.729 147.484V157.656C163.729 159.524 164.075 160.943 164.767 161.911C165.459 162.811 166.67 163.261 168.4 163.261C169.645 163.261 170.856 163.019 172.032 162.534C173.209 161.981 174.316 161.323 175.354 160.562C176.392 159.732 177.292 158.901 178.053 158.071L179.61 168.762C178.157 170.284 176.496 171.876 174.627 173.537C172.759 175.128 170.614 176.478 168.192 177.585C165.77 178.692 162.933 179.246 159.681 179.246ZM180.232 178C179.817 178 179.471 177.931 179.194 177.792C178.987 177.585 178.814 177.239 178.676 176.754C178.399 175.647 178.157 174.402 177.949 173.018C177.811 171.634 177.707 170.25 177.638 168.866L175.873 161.911V108.663C175.873 107.625 176.392 107.106 177.43 107.106H193C194.037 107.106 194.556 107.625 194.556 108.663V164.403C194.556 165.925 194.556 167.378 194.556 168.762C194.626 170.077 194.695 171.357 194.764 172.603C194.902 173.848 195.006 175.094 195.075 176.339C195.214 177.446 194.729 178 193.622 178H180.232ZM217.782 179.246C212.938 179.246 209.305 177.931 206.883 175.301C204.461 172.603 203.25 168.312 203.25 162.43V127.658C203.25 126.62 203.769 126.101 204.807 126.101H220.377C221.415 126.101 221.934 126.62 221.934 127.658V157.656C221.934 159.524 222.245 160.943 222.868 161.911C223.56 162.811 224.563 163.261 225.878 163.261C227.677 163.261 229.442 162.673 231.172 161.496C232.971 160.251 234.424 159.005 235.531 157.76L237.088 168.658C235.635 170.111 234.009 171.668 232.21 173.329C230.411 174.99 228.335 176.408 225.982 177.585C223.629 178.692 220.896 179.246 217.782 179.246ZM237.711 178C237.227 178 236.846 177.931 236.569 177.792C236.362 177.585 236.189 177.239 236.05 176.754C235.773 175.647 235.531 174.402 235.324 173.018C235.185 171.634 235.047 170.25 234.908 168.866L233.248 161.911V127.658C233.248 126.62 233.767 126.101 234.805 126.101H250.374C251.412 126.101 251.931 126.62 251.931 127.658V164.403C251.931 166.686 251.966 168.797 252.035 170.734C252.173 172.672 252.312 174.54 252.45 176.339C252.589 177.446 252.104 178 250.997 178H237.711ZM262.18 178C261.142 178 260.623 177.481 260.623 176.443V108.663C260.623 107.625 261.142 107.106 262.18 107.106H277.749C278.787 107.106 279.306 107.625 279.306 108.663V176.443C279.306 177.481 278.787 178 277.749 178H262.18ZM319.338 178C318.923 178 318.577 177.896 318.3 177.689C318.023 177.481 317.85 177.17 317.781 176.754C317.573 175.786 317.366 174.644 317.158 173.329C316.95 171.945 316.743 170.457 316.535 168.866L314.978 164.195V143.228C314.978 141.221 314.598 139.837 313.837 139.076C313.145 138.315 311.864 137.934 309.996 137.934C306.536 137.934 304.945 139.422 305.221 142.398C305.36 143.436 304.841 143.954 303.664 143.954H289.652C288.683 143.954 288.129 143.47 287.991 142.501C287.507 136.55 289.167 132.122 292.973 129.215C296.779 126.309 302.696 124.856 310.723 124.856C318.888 124.856 324.735 126.378 328.264 129.423C331.863 132.398 333.662 137.311 333.662 144.162V164.403C333.662 166.409 333.696 168.381 333.766 170.319C333.835 172.257 333.973 174.263 334.181 176.339C334.319 177.446 333.835 178 332.728 178H319.338ZM299.409 179.246C295.049 179.246 291.659 177.965 289.237 175.405C286.884 172.776 285.708 169.143 285.708 164.506C285.708 160.908 286.365 158.002 287.68 155.787C288.994 153.504 291.209 151.739 294.323 150.494C297.437 149.179 301.658 148.279 306.986 147.795L316.432 146.861L316.328 155.684L310.307 156.306C307.747 156.583 305.948 157.171 304.91 158.071C303.941 158.901 303.457 160.216 303.457 162.015C303.457 163.468 303.734 164.506 304.287 165.129C304.91 165.752 305.844 166.063 307.09 166.063C308.751 166.063 310.342 165.614 311.864 164.714C313.387 163.745 315.013 162.257 316.743 160.251L317.988 169.489C316.397 171.08 314.702 172.637 312.902 174.16C311.172 175.613 309.2 176.824 306.986 177.792C304.841 178.761 302.315 179.246 299.409 179.246ZM343.981 178C342.943 178 342.424 177.481 342.424 176.443V139.699C342.424 137.415 342.355 135.305 342.216 133.367C342.147 131.43 342.043 129.561 341.905 127.762C341.766 126.655 342.251 126.101 343.358 126.101H356.748C357.163 126.101 357.509 126.205 357.786 126.413C358.063 126.551 358.236 126.863 358.305 127.347C358.582 128.454 358.789 129.7 358.928 131.084C359.135 132.468 359.274 133.852 359.343 135.236L361.107 142.19V176.443C361.107 177.481 360.588 178 359.55 178H343.981ZM360.069 149.663L358.72 135.028C360.104 133.09 361.626 131.36 363.287 129.838C365.017 128.316 366.747 127.105 368.477 126.205C370.276 125.306 371.937 124.856 373.459 124.856C374.497 124.856 375.397 124.994 376.158 125.271C376.642 125.409 376.954 125.652 377.092 125.998C377.231 126.274 377.3 126.655 377.3 127.139C377.3 129.146 377.265 131.464 377.196 134.094C377.196 136.723 377.092 139.18 376.885 141.463C376.815 142.017 376.642 142.432 376.366 142.709C376.158 142.917 375.743 142.986 375.12 142.917C374.843 142.847 374.393 142.778 373.771 142.709C373.148 142.64 372.56 142.605 372.006 142.605C370.83 142.605 369.55 142.847 368.166 143.332C366.782 143.816 365.398 144.577 364.014 145.615C362.63 146.584 361.315 147.933 360.069 149.663ZM404.52 178C403.482 178 402.963 177.481 402.963 176.443V111.57C402.963 110.532 403.482 110.013 404.52 110.013H430.573C441.575 110.013 449.706 112.539 454.965 117.59C460.224 122.641 462.854 130.046 462.854 139.803V148.003C462.854 157.829 460.224 165.302 454.965 170.423C449.706 175.474 441.575 178 430.573 178H404.52ZM422.269 161.392H429.327C434.24 161.392 437.839 160.147 440.122 157.656C442.406 155.095 443.548 151.566 443.548 147.068V140.737C443.548 136.308 442.406 132.848 440.122 130.357C437.839 127.866 434.24 126.62 429.327 126.62H422.269V161.392ZM464.688 178C463.512 178 463.097 177.412 463.443 176.235L484.721 111.258C484.998 110.428 485.586 110.013 486.486 110.013H507.349C508.248 110.013 508.837 110.428 509.113 111.258L530.392 176.235C530.53 176.72 530.496 177.135 530.288 177.481C530.15 177.827 529.804 178 529.25 178H511.397C510.497 178 509.944 177.585 509.736 176.754L500.498 141.671C499.806 139.041 499.149 136.446 498.526 133.886C497.972 131.257 497.453 128.662 496.969 126.101H496.658C496.173 128.731 495.62 131.36 494.997 133.99C494.443 136.619 493.821 139.249 493.129 141.879L484.202 176.651C483.994 177.55 483.406 178 482.437 178H464.688ZM483.994 166.894L486.797 151.947H506.415L509.425 166.894H483.994ZM556.668 178C555.63 178 555.111 177.481 555.111 176.443V111.57C555.111 110.532 555.63 110.013 556.668 110.013H573.275C574.037 110.013 574.417 110.532 574.417 111.57V161.392H599.432C600.401 161.392 600.885 161.877 600.885 162.846V176.443C600.885 177.481 600.401 178 599.432 178H556.668ZM640.157 178C639.741 178 639.395 177.896 639.119 177.689C638.842 177.481 638.669 177.17 638.6 176.754C638.392 175.786 638.184 174.644 637.977 173.329C637.769 171.945 637.562 170.457 637.354 168.866L635.797 164.195V143.228C635.797 141.221 635.417 139.837 634.655 139.076C633.963 138.315 632.683 137.934 630.815 137.934C627.355 137.934 625.763 139.422 626.04 142.398C626.179 143.436 625.66 143.954 624.483 143.954H610.471C609.502 143.954 608.948 143.47 608.81 142.501C608.325 136.55 609.986 132.122 613.792 129.215C617.598 126.309 623.514 124.856 631.541 124.856C639.707 124.856 645.554 126.378 649.083 129.423C652.681 132.398 654.481 137.311 654.481 144.162V164.403C654.481 166.409 654.515 168.381 654.584 170.319C654.654 172.257 654.792 174.263 655 176.339C655.138 177.446 654.654 178 653.546 178H640.157ZM620.228 179.246C615.868 179.246 612.477 177.965 610.055 175.405C607.703 172.776 606.526 169.143 606.526 164.506C606.526 160.908 607.184 158.002 608.498 155.787C609.813 153.504 612.028 151.739 615.141 150.494C618.255 149.179 622.476 148.279 627.805 147.795L637.25 146.861L637.146 155.684L631.126 156.306C628.566 156.583 626.767 157.171 625.729 158.071C624.76 158.901 624.276 160.216 624.276 162.015C624.276 163.468 624.552 164.506 625.106 165.129C625.729 165.752 626.663 166.063 627.909 166.063C629.569 166.063 631.161 165.614 632.683 164.714C634.206 163.745 635.832 162.257 637.562 160.251L638.807 169.489C637.216 171.08 635.52 172.637 633.721 174.16C631.991 175.613 630.019 176.824 627.805 177.792C625.66 178.761 623.134 179.246 620.228 179.246ZM672.604 197.202C671.289 197.202 670.874 196.614 671.358 195.438L677.586 178L659.214 127.866C658.799 126.69 659.214 126.101 660.459 126.101H677.378C678.347 126.101 678.935 126.551 679.143 127.451L683.087 141.567C683.71 143.851 684.264 146.273 684.748 148.833C685.232 151.324 685.682 153.988 686.097 156.825H686.513C686.928 153.988 687.343 151.359 687.758 148.937C688.243 146.446 688.796 144.058 689.419 141.775L693.363 127.451C693.571 126.551 694.159 126.101 695.128 126.101H711.943C712.497 126.101 712.877 126.274 713.085 126.62C713.361 126.897 713.396 127.312 713.188 127.866L689.315 195.957C689.038 196.787 688.45 197.202 687.551 197.202H672.604ZM742.072 179.246C733.008 179.246 726.434 177.446 722.351 173.848C718.337 170.181 716.331 164.749 716.331 157.552V147.587C716.331 140.114 718.337 134.474 722.351 130.668C726.434 126.793 732.869 124.856 741.657 124.856C750.099 124.856 756.431 126.69 760.652 130.357C764.873 133.955 766.984 139.387 766.984 146.653V154.749C766.984 155.787 766.465 156.306 765.427 156.306H734.703V159.213C734.703 161.289 735.222 162.915 736.26 164.091C737.298 165.198 739.028 165.752 741.45 165.752C743.387 165.752 744.944 165.475 746.121 164.922C747.297 164.299 747.885 163.365 747.885 162.119C747.885 161.219 748.404 160.77 749.442 160.77H764.285C765.323 160.77 765.842 161.289 765.842 162.327C765.842 168.208 763.939 172.499 760.133 175.197C756.397 177.896 750.376 179.246 742.072 179.246ZM734.703 146.757H748.819V146.342C748.819 143.505 748.266 141.498 747.159 140.322C746.121 139.076 744.356 138.453 741.865 138.453C739.235 138.453 737.367 139.076 736.26 140.322C735.222 141.498 734.703 143.505 734.703 146.342V146.757ZM776.098 178C775.06 178 774.541 177.481 774.541 176.443V139.699C774.541 137.415 774.472 135.305 774.333 133.367C774.264 131.43 774.16 129.561 774.022 127.762C773.883 126.655 774.368 126.101 775.475 126.101H788.865C789.28 126.101 789.626 126.205 789.903 126.413C790.18 126.551 790.353 126.863 790.422 127.347C790.699 128.454 790.906 129.7 791.045 131.084C791.252 132.468 791.391 133.852 791.46 135.236L793.224 142.19V176.443C793.224 177.481 792.705 178 791.667 178H776.098ZM792.186 149.663L790.837 135.028C792.221 133.09 793.743 131.36 795.404 129.838C797.134 128.316 798.864 127.105 800.594 126.205C802.393 125.306 804.054 124.856 805.576 124.856C806.614 124.856 807.514 124.994 808.275 125.271C808.759 125.409 809.071 125.652 809.209 125.998C809.347 126.274 809.417 126.655 809.417 127.139C809.417 129.146 809.382 131.464 809.313 134.094C809.313 136.723 809.209 139.18 809.001 141.463C808.932 142.017 808.759 142.432 808.482 142.709C808.275 142.917 807.86 142.986 807.237 142.917C806.96 142.847 806.51 142.778 805.888 142.709C805.265 142.64 804.677 142.605 804.123 142.605C802.947 142.605 801.666 142.847 800.282 143.332C798.899 143.816 797.515 144.577 796.131 145.615C794.747 146.584 793.432 147.933 792.186 149.663Z" fill="url(#paint0_linear_1_27)"/>
<defs>
<linearGradient id="paint0_linear_1_27" x1="-1" y1="93" x2="831" y2="93" gradientUnits="userSpaceOnUse">
<stop offset="0.135" stop-color="#FFAD4D"/>
<stop offset="0.515" stop-color="#86E1D1"/>
<stop offset="1" stop-color="#00B3FF"/>
</linearGradient>
</defs>
</svg>
