<svg width="112" height="112" viewBox="0 0 112 112" fill="none" xmlns="http://www.w3.org/2000/svg">
<mask id="mask0_1_57" style="mask-type:alpha" maskUnits="userSpaceOnUse" x="0" y="0" width="112" height="112">
<rect width="111.581" height="111.581" fill="#D9D9D9"/>
</mask>
<g mask="url(#mask0_1_57)">
<path d="M76.0675 43.8842L57.3467 33.2162C57.088 33.0689 56.7945 32.9913 56.4957 32.9913C56.197 32.9913 55.9035 33.0689 55.6448 33.2162L36.924 43.8926C36.6655 44.0398 36.4509 44.2514 36.3015 44.5063C36.1521 44.7611 36.0734 45.0502 36.0731 45.3446V66.6554C36.0734 66.9498 36.1521 67.2389 36.3015 67.4937C36.4509 67.7486 36.6655 67.9602 36.924 68.1074L55.6448 78.7754C55.9052 78.9179 56.198 78.993 56.4957 78.9936C56.7947 78.9931 57.0881 78.9149 57.3467 78.767L76.0675 68.099C76.326 67.9519 76.5406 67.7402 76.69 67.4853C76.8393 67.2305 76.9181 66.9414 76.9184 66.647V45.3362C76.9181 45.0418 76.8393 44.7527 76.69 44.4979C76.5406 44.243 76.326 44.0314 76.0675 43.8842ZM56.4957 36.6155L71.8808 45.3698L56.4957 54.0569L41.1787 45.3446L56.4957 36.6155ZM39.4768 48.2487L54.7939 56.9694V74.4109L39.4768 65.6901V48.2487ZM58.1976 74.4109V56.9694L73.5147 48.3159V65.6818L58.1976 74.4109ZM52.241 17.252L54.7939 14.734V27.4583C54.7939 27.9036 54.9732 28.3305 55.2923 28.6454C55.6115 28.9602 56.0444 29.137 56.4957 29.137C56.9471 29.137 57.38 28.9602 57.6992 28.6454C58.0183 28.3305 58.1976 27.9036 58.1976 27.4583V14.7256L60.7505 17.2436C60.9088 17.4007 61.0971 17.5254 61.3045 17.6103C61.5119 17.6953 61.7342 17.739 61.9588 17.7388C62.2969 17.7408 62.6278 17.6434 62.9095 17.459C63.1912 17.2747 63.4109 17.0118 63.5405 16.7039C63.6701 16.396 63.7039 16.0569 63.6374 15.73C63.5709 15.4031 63.4072 15.1031 63.1672 14.8683L57.6956 9.48815C57.3767 9.17549 56.9454 9 56.4957 9C56.0461 9 55.6148 9.17549 55.2959 9.48815L49.8243 14.8683C49.5039 15.1844 49.3238 15.6131 49.3238 16.0602C49.3238 16.5072 49.5039 16.9359 49.8243 17.252C50.1448 17.5681 50.5795 17.7457 51.0327 17.7457C51.4859 17.7457 51.9205 17.5681 52.241 17.252ZM60.7505 94.7396L58.1976 97.2576V84.5333C58.1976 84.088 58.0183 83.6611 57.6992 83.3463C57.38 83.0314 56.9471 82.8546 56.4957 82.8546C56.0444 82.8546 55.6115 83.0314 55.2923 83.3463C54.9732 83.6611 54.7939 84.088 54.7939 84.5333V97.266L52.241 94.748C52.0829 94.5915 51.8951 94.4672 51.6883 94.3823C51.4814 94.2974 51.2597 94.2535 51.0357 94.2531C50.8117 94.2527 50.5898 94.2958 50.3827 94.38C50.1755 94.4642 49.9873 94.5878 49.8286 94.7438C49.6699 94.8998 49.5439 95.085 49.4578 95.289C49.3717 95.493 49.3272 95.7117 49.3268 95.9327C49.3264 96.1536 49.3702 96.3725 49.4555 96.5768C49.5409 96.7811 49.6662 96.9668 49.8243 97.1233L55.2959 102.512C55.6148 102.825 56.0461 103 56.4957 103C56.9454 103 57.3767 102.825 57.6956 102.512L63.1672 97.1233C63.3258 96.9668 63.4517 96.781 63.5376 96.5765C63.6235 96.372 63.6677 96.1528 63.6677 95.9314C63.6677 95.7101 63.6235 95.4909 63.5376 95.2864C63.4517 95.0819 63.3258 94.8961 63.1672 94.7396C63.0085 94.5831 62.8201 94.4589 62.6128 94.3742C62.4054 94.2895 62.1832 94.2459 61.9588 94.2459C61.7344 94.2459 61.5122 94.2895 61.3049 94.3742C61.0975 94.4589 60.9092 94.5831 60.7505 94.7396ZM32.2949 40.275L21.1134 33.9045L24.6108 32.9812C24.8421 32.941 25.0625 32.8541 25.2581 32.7259C25.4537 32.5976 25.6202 32.4308 25.7472 32.236C25.8743 32.0411 25.9591 31.8225 25.9963 31.5938C26.0335 31.365 26.0223 31.1312 25.9634 30.9069C25.9045 30.6827 25.7991 30.4729 25.654 30.2907C25.5089 30.1086 25.3272 29.958 25.1202 29.8486C24.9132 29.7391 24.6855 29.673 24.4514 29.6546C24.2173 29.6361 23.9818 29.6657 23.7599 29.7413L16.2886 31.7138C16.0673 31.7671 15.8592 31.8636 15.6765 31.9977C15.4938 32.1318 15.3402 32.3007 15.2249 32.4944C15.0039 32.8822 14.9429 33.3391 15.0547 33.7702L17.0629 41.1395C17.1602 41.4959 17.3738 41.8106 17.6707 42.0352C17.9675 42.2597 18.3311 42.3815 18.7053 42.3818C18.8548 42.3823 19.0037 42.3626 19.1477 42.323C19.5832 42.207 19.9541 41.9253 20.1791 41.5397C20.4041 41.1541 20.4647 40.6962 20.3476 40.2666L19.4115 36.817L30.593 43.1791C30.8515 43.3271 31.145 43.4052 31.4439 43.4058C31.818 43.4051 32.1814 43.2829 32.478 43.058C32.7746 42.8332 32.9879 42.5182 33.0847 42.1618C33.1816 41.8054 33.1567 41.4274 33.014 41.0864C32.8712 40.7453 32.6184 40.4602 32.2949 40.275ZM95.9286 70.8521C95.7887 70.453 95.5016 70.1206 95.1244 69.9211C94.7472 69.7216 94.3076 69.6696 93.8932 69.7754C93.4789 69.8813 93.1202 70.1373 92.8886 70.4924C92.6571 70.8475 92.5697 71.2756 92.6439 71.6914L93.58 75.1411L82.3985 68.8125C82.0096 68.6118 81.5571 68.5671 81.1355 68.6877C80.7139 68.8084 80.3559 69.085 80.1362 69.4598C79.9165 69.8347 79.8522 70.2788 79.9566 70.6993C80.0611 71.1198 80.3262 71.4843 80.6966 71.7166L91.8781 78.0872L88.3807 79.0104C87.9837 79.1168 87.6393 79.3614 87.411 79.6989C87.1828 80.0364 87.0862 80.4441 87.1391 80.8464C87.192 81.2488 87.3909 81.6186 87.699 81.8875C88.007 82.1564 88.4033 82.3061 88.8147 82.309C88.9642 82.3102 89.1132 82.2904 89.2571 82.2503L96.7285 80.2778C96.9451 80.2215 97.1483 80.1236 97.3264 79.9896C97.5046 79.8557 97.6542 79.6883 97.7666 79.4972C97.9876 79.1094 98.0486 78.6525 97.9368 78.2214L95.9286 70.8521ZM30.593 68.8125L19.4115 75.1746L20.3476 71.725C20.4243 71.506 20.4543 71.2738 20.4355 71.0429C20.4168 70.812 20.3499 70.5874 20.2389 70.3832C20.1279 70.1791 19.9753 69.9998 19.7906 69.8567C19.6059 69.7135 19.3932 69.6096 19.1659 69.5516C18.9385 69.4935 18.7014 69.4824 18.4696 69.5191C18.2377 69.5558 18.016 69.6394 17.8184 69.7647C17.6209 69.89 17.4518 70.0543 17.3218 70.2472C17.1918 70.4401 17.1036 70.6575 17.0629 70.8856L15.0547 78.2214C14.9429 78.6525 15.0039 79.1094 15.2249 79.4972C15.3373 79.6883 15.4869 79.8557 15.6651 79.9896C15.8432 80.1236 16.0464 80.2215 16.263 80.2778L23.7343 82.2503C23.8783 82.2904 24.0273 82.3102 24.1768 82.309C24.5882 82.3061 24.9845 82.1564 25.2925 81.8875C25.6006 81.6186 25.7995 81.2488 25.8524 80.8464C25.9053 80.4441 25.8087 80.0364 25.5805 79.6989C25.3522 79.3614 25.0078 79.1168 24.6108 79.0104L21.1134 78.0872L32.2949 71.7166C32.6653 71.4843 32.9304 71.1198 33.0349 70.6993C33.1393 70.2788 33.0749 69.8347 32.8553 69.4598C32.6356 69.085 32.2776 68.8084 31.856 68.6877C31.4344 68.5671 30.9819 68.6118 30.593 68.8125ZM81.5561 43.4058C81.855 43.4052 82.1485 43.3271 82.407 43.1791L93.5885 36.817L92.6524 40.2666C92.5353 40.6962 92.5959 41.1541 92.8209 41.5397C93.0459 41.9253 93.4168 42.207 93.8523 42.323C93.9963 42.3626 94.1452 42.3823 94.2947 42.3818C94.6689 42.3815 95.0325 42.2597 95.3293 42.0352C95.6262 41.8106 95.8398 41.4959 95.9371 41.1395L97.9453 33.7702C98.0571 33.3391 97.9961 32.8822 97.7751 32.4944C97.6627 32.3033 97.5131 32.1359 97.3349 32.002C97.1568 31.868 96.9536 31.7701 96.737 31.7138L89.2657 29.7413C89.0437 29.6657 88.8082 29.6361 88.5741 29.6546C88.34 29.673 88.1123 29.7391 87.9053 29.8486C87.6984 29.958 87.5166 30.1086 87.3715 30.2907C87.2264 30.4729 87.1211 30.6827 87.0622 30.9069C87.0033 31.1312 86.9921 31.365 87.0293 31.5938C87.0665 31.8225 87.1512 32.0411 87.2783 32.236C87.4053 32.4308 87.5719 32.5976 87.7675 32.7259C87.963 32.8541 88.1834 32.941 88.4147 32.9812L91.9121 33.9045L80.6966 40.275C80.3731 40.4602 80.1203 40.7453 79.9775 41.0864C79.8348 41.4274 79.8099 41.8054 79.9068 42.1618C80.0036 42.5182 80.2169 42.8332 80.5135 43.058C80.8101 43.2829 81.1735 43.4051 81.5476 43.4058H81.5561Z" fill="#86E1D1"/>
</g>
</svg>
