<svg width="112" height="112" viewBox="0 0 112 112" fill="none" xmlns="http://www.w3.org/2000/svg">
<mask id="mask0_1_60" style="mask-type:alpha" maskUnits="userSpaceOnUse" x="0" y="0" width="112" height="112">
<rect width="111.581" height="111.581" fill="#D9D9D9"/>
</mask>
<g mask="url(#mask0_1_60)">
<path d="M78.2778 52.3891C79.2984 52.3891 80.1875 52.0106 80.9449 51.2536C81.7024 50.4966 82.0812 49.6082 82.0812 48.5882C82.0812 47.5683 81.7024 46.6798 80.9449 45.9228C80.1875 45.1659 79.2984 44.7874 78.2778 44.7874C77.2572 44.7874 76.3681 45.1659 75.6106 45.9228C74.8531 46.6798 74.4744 47.5683 74.4744 48.5882C74.4744 49.6082 74.8531 50.4966 75.6106 51.2536C76.3681 52.0106 77.2572 52.3891 78.2778 52.3891ZM38.7222 40.0362H63.4444V36.2353H38.7222V40.0362ZM25.125 98C22.7035 89.372 20.2439 80.812 17.7463 72.3202C15.2488 63.8283 14 55.0941 14 46.1176C14 39.9348 16.1616 34.6832 20.4848 30.3628C24.808 26.0425 30.0631 23.8824 36.25 23.8824H63.4444C65.5807 21.0697 68.1052 18.7194 71.018 16.8317C73.9307 14.9439 77.1748 14 80.75 14C81.4156 14 81.9941 14.2455 82.4854 14.7364C82.9766 15.2273 83.2222 15.8054 83.2222 16.4706C83.2222 16.648 83.1921 16.8254 83.1319 17.0028C83.0717 17.1801 83.0226 17.348 82.9845 17.5064C82.4013 18.9824 81.9338 20.4948 81.582 22.0436C81.2302 23.5925 80.9085 25.1461 80.6169 26.7045L95.0984 41.1765H103V67.0891L89.9829 71.3747L81.9861 98H63.4444V88.1176H43.6667V98H25.125ZM28.025 94.1991H39.8633V84.3168H67.2478V94.1991H79.1811L86.8736 68.5431L99.1966 64.3145V44.9773H93.5295L76.9466 28.4054C76.9657 26.5366 77.1384 24.7455 77.4648 23.0319C77.7913 21.3183 78.2334 19.6317 78.7913 17.972C76.1035 18.6688 73.644 19.8518 71.4127 21.5211C69.1813 23.1903 67.3873 25.2443 66.0308 27.6832H36.25C31.1045 27.6832 26.7437 29.4701 23.1676 33.0439C19.5915 36.6176 17.8034 40.9755 17.8034 46.1176C17.8034 54.3952 18.9507 62.4827 21.2455 70.3801C23.5402 78.2775 25.8 86.2172 28.025 94.1991Z" fill="#00B3FF"/>
</g>
</svg>
