<svg width="112" height="112" viewBox="0 0 112 112" fill="none" xmlns="http://www.w3.org/2000/svg">
<mask id="mask0_1_66" style="mask-type:alpha" maskUnits="userSpaceOnUse" x="0" y="0" width="112" height="112">
<rect width="111.581" height="111.581" fill="#D9D9D9"/>
</mask>
<g mask="url(#mask0_1_66)">
<path d="M50.4417 70.0671L76.0967 44.505L73.367 41.7053L50.6297 64.4482L38.633 52.4486L35.745 55.3372L50.4417 70.0671ZM56 102C45.6484 98.8674 37.0604 92.528 30.2362 82.9817C23.4121 73.4355 20 62.7401 20 50.8955V23.4537L56 10L92 23.4537V50.8955C92 62.7401 88.5879 73.4355 81.7638 82.9817C74.9396 92.528 66.3516 98.8674 56 102ZM56 97.7858C65.3297 94.7917 73.0028 88.9205 79.0193 80.1722C85.0358 71.424 88.044 61.6651 88.044 50.8955V26.1841L56 14.1747L23.956 26.1841V50.8955C23.956 61.6651 26.9642 71.424 32.9807 80.1722C38.9972 88.9205 46.6703 94.7917 56 97.7858Z" fill="#86E1D1"/>
</g>
</svg>
