<svg width="40" height="36" viewBox="0 0 40 36" fill="none" xmlns="http://www.w3.org/2000/svg">
<path d="M39.2447 0.494895C38.5623 -0.077507 37.4907 -0.159407 36.3826 0.280694H36.3808C35.2154 0.743296 3.39229 14.2469 2.0968 14.7986C1.86118 14.8796 -0.19668 15.6392 0.0152919 17.3312C0.20452 18.8567 1.85845 19.4886 2.06041 19.5615L10.1508 22.302C10.6876 24.0696 12.6663 30.591 13.1039 31.9842C13.3768 32.8527 13.8217 33.9939 14.6013 34.2288C15.2855 34.4898 15.966 34.2513 16.4063 33.9093L21.3526 29.3706L29.3375 35.5311L29.5276 35.6436C30.0698 35.8812 30.5893 36 31.0851 36C31.4681 36 31.8356 35.9289 32.1868 35.7867C33.3831 35.3007 33.8617 34.173 33.9117 34.0452L39.876 3.3758C40.2399 1.7378 39.7341 0.904396 39.2447 0.494895ZM17.286 23.3982L14.5567 30.5982L11.8275 21.5982L32.7518 6.29811L17.286 23.3982Z" fill="white"/>
</svg>
