<svg width="49" height="28" viewBox="0 0 49 28" fill="none" xmlns="http://www.w3.org/2000/svg">
<path d="M13.8478 0C10.1752 0 6.65291 1.475 4.05593 4.1005C1.45896 6.72601 0 10.287 0 14C0 17.713 1.45896 21.274 4.05593 23.8995C6.65291 26.525 10.1752 28 13.8478 28C17.5205 28 21.0427 26.525 23.6397 23.8995C26.2367 21.274 27.6957 17.713 27.6957 14C27.6957 10.287 26.2367 6.72601 23.6397 4.1005C21.0427 1.475 17.5205 0 13.8478 0ZM35.6848 1.07692C31.8607 1.07692 28.7609 6.86323 28.7609 14C28.7609 15.3386 28.8695 16.6288 29.0719 17.8425C29.3414 19.4611 29.7771 20.9429 30.3417 22.2202C30.6239 22.8588 30.9382 23.4457 31.2801 23.9723C31.964 25.0255 32.7586 25.8386 33.6257 26.3426C34.2766 26.7195 34.9679 26.9231 35.6848 26.9231C36.4017 26.9231 37.093 26.7195 37.7438 26.3426C38.6109 25.8386 39.4056 25.0255 40.0895 23.9723C40.4314 23.4457 40.7456 22.8588 41.0279 22.2202C41.5925 20.944 42.0282 19.4611 42.2977 17.8425C42.5 16.6288 42.6087 15.3386 42.6087 14C42.6087 6.86323 39.5089 1.07692 35.6848 1.07692ZM46.337 2.15385C46.0611 2.15385 45.7948 2.34015 45.5455 2.68692C45.3783 2.91738 45.2185 3.21892 45.0683 3.584C44.9926 3.766 44.9192 3.96415 44.8488 4.17738C44.7072 4.60277 44.5751 5.08846 44.4547 5.62369C44.214 6.69523 44.019 7.97246 43.8838 9.38969C43.8167 10.0983 43.7645 10.8425 43.7282 11.6135C43.692 12.3835 43.6739 13.1826 43.6739 14C43.6739 14.8174 43.692 15.6165 43.7282 16.3875C43.7634 17.1586 43.8156 17.9028 43.8838 18.6114C44.019 20.0286 44.214 21.3048 44.4547 22.3774C44.5751 22.9137 44.7072 23.3983 44.8488 23.8237C44.9192 24.0369 44.9926 24.2351 45.0683 24.4171C45.2195 24.7822 45.3793 25.0837 45.5455 25.3142C45.7948 25.6598 46.0611 25.8462 46.337 25.8462C47.808 25.8462 49 20.5423 49 14C49 7.45769 47.808 2.15385 46.337 2.15385Z" fill="white"/>
</svg>
