<svg width="112" height="112" viewBox="0 0 112 112" fill="none" xmlns="http://www.w3.org/2000/svg">
<mask id="mask0_1_69" style="mask-type:alpha" maskUnits="userSpaceOnUse" x="0" y="0" width="112" height="112">
<rect width="111.581" height="111.581" fill="#D9D9D9"/>
</mask>
<g mask="url(#mask0_1_69)">
<path d="M55.807 9C50.3943 9 45.1626 11.6117 40.6852 16.5205C40.384 16.8681 40.2308 17.3208 40.2586 17.7809C40.2865 18.241 40.4932 18.6716 40.8341 18.9799C41.1751 19.2882 41.623 19.4495 42.0812 19.4289C42.5394 19.4083 42.9711 19.2075 43.2833 18.8699C47.0419 14.6921 51.3902 12.4815 55.807 12.4815C61.6354 12.4815 66.996 16.1972 71.1876 22.3768C65.9051 22.7605 60.6958 23.8408 55.6937 25.5897C49.9178 23.6005 43.8641 22.5459 37.759 22.4652C27.2973 22.4652 19.4512 26.1032 15.6667 32.7006C11.9687 39.1239 12.8684 47.4443 17.2939 55.7824C12.548 64.3294 11.5184 72.9026 15.303 79.5C18.0137 84.2174 22.8713 87.4646 29.3405 88.9007C29.4676 88.9136 29.5957 88.9136 29.7228 88.9007C30.1483 88.8987 30.5582 88.7393 30.8743 88.4529C31.1904 88.1666 31.3905 87.7733 31.4365 87.3482C31.4825 86.923 31.3712 86.4957 31.1238 86.1478C30.8763 85.7998 30.5101 85.5556 30.0949 85.4617C24.6303 84.278 20.5154 81.6063 18.3071 77.7593C15.3539 72.6241 15.9699 66.0009 19.2695 59.1772C22.1683 63.5817 25.6299 67.5847 29.5655 71.0836C33.2894 89.6225 43.6825 103 55.807 103C63.2549 103 70.0186 97.9785 75.0069 89.8492C84.8364 89.7274 92.8299 86.3676 96.6578 79.7006C99.3598 74.9832 99.7324 69.1331 97.7319 62.7794C97.6636 62.561 97.5531 62.3584 97.4069 62.1829C97.2607 62.0075 97.0815 61.8627 96.8796 61.7569C96.6777 61.651 96.457 61.5862 96.2301 61.5661C96.0033 61.5459 95.7747 61.5709 95.5575 61.6396C95.3402 61.7082 95.1386 61.8192 94.964 61.9661C94.7895 62.1131 94.6454 62.2932 94.5401 62.4961C94.4348 62.6991 94.3703 62.9208 94.3502 63.1488C94.3302 63.3768 94.355 63.6065 94.4234 63.8248C96.1554 69.2298 95.852 74.1128 93.6436 77.9599C90.6644 83.1821 84.5675 85.9575 76.9031 86.4188C79.2746 81.6021 80.9959 76.4888 82.0215 71.2145C96.0686 58.7247 102.382 43.0663 96.311 32.5C92.6217 26.0854 85.1048 22.4903 75.0847 22.2901C70.0964 14.0739 63.2982 9 55.807 9ZM73.214 25.7716C77.4575 33.605 80.056 44.2674 80.056 56C80.0624 60.4887 79.6684 64.969 78.8787 69.387C75.4682 72.2859 71.8042 74.8696 67.9315 77.1065C67.4205 77.4024 66.9015 77.6983 66.3906 77.9769C65.9928 78.2013 65.6992 78.5743 65.5734 79.015C65.4476 79.4557 65.4999 79.9284 65.7188 80.3306C65.9377 80.7328 66.3056 81.032 66.7427 81.1633C67.1798 81.2945 67.6507 81.2472 68.0533 81.0316C68.5902 80.7357 69.1266 80.4321 69.6636 80.1188C72.4405 78.5105 75.1159 76.7312 77.6744 74.7912C76.6261 78.8496 75.0997 82.7679 73.1277 86.463C64.3461 86.1409 54.0143 83.0863 44.0462 77.3071C40.0551 74.9835 36.2862 72.2941 32.7878 69.2731C31.9852 64.8944 31.5737 60.4524 31.5581 56V54.2593C31.5685 53.7982 31.3965 53.3519 31.0798 53.0181C30.7632 52.6844 30.3277 52.4905 29.869 52.479C29.4103 52.4675 28.9658 52.6394 28.633 52.9569C28.3002 53.2744 28.1064 53.7116 28.0939 54.1726V56.034C28.0905 59.1965 28.2786 62.3563 28.6572 65.4959C25.789 62.5813 23.2743 59.3356 21.1656 55.8266C25.8162 48.2718 33.6625 40.7257 43.6825 34.9377C47.5114 32.707 51.5311 30.825 55.6937 29.3143C60.0568 30.8473 64.2672 32.7881 68.2698 35.1111C68.7894 35.407 69.2915 35.7117 69.7938 35.9815C70.1865 36.2196 70.6571 36.2915 71.1025 36.1817C71.5478 36.0718 71.9317 35.7889 72.1701 35.3951C72.4084 35.0013 72.4817 34.5287 72.374 34.0807C72.2662 33.6327 71.9862 33.2458 71.5952 33.0049C71.0756 32.6828 70.5388 32.3696 70.0019 32.0563C67.0979 30.3832 64.0924 28.8945 61.0032 27.5991C64.9871 26.506 69.0861 25.8926 73.214 25.7716ZM77.0502 25.8583C84.7753 26.4067 90.501 29.3493 93.307 34.2407C98.1221 42.6137 93.5668 54.9295 82.9146 65.6438C83.3119 62.4446 83.5141 59.224 83.5201 56C83.5201 44.5372 81.086 34.0224 77.0502 25.8583ZM37.7421 25.9467C41.9977 25.9987 46.2302 26.5835 50.3419 27.6875C47.465 28.9182 44.663 30.3185 41.9505 31.8812C32.147 37.5647 24.3432 44.8774 19.3202 52.4148C16.2458 45.8 15.7788 39.4634 18.6453 34.4413C21.7891 28.9667 28.5708 25.9467 37.7421 25.9467ZM55.8189 35.1111C55.5249 35.1091 55.2352 35.1823 54.9772 35.3239C54.7192 35.4655 54.5012 35.6707 54.3439 35.9203L42.3057 55.0684C42.13 55.3471 42.0368 55.6701 42.0368 56C42.0368 56.3299 42.13 56.6529 42.3057 56.9316L54.3439 76.0797C54.5002 76.3276 54.7162 76.5317 54.972 76.6732C55.2278 76.8146 55.5151 76.8888 55.807 76.8888C56.099 76.8888 56.3862 76.8146 56.642 76.6732C56.8978 76.5317 57.1139 76.3276 57.2701 76.0797L69.3084 56.9316C69.484 56.6529 69.5773 56.3299 69.5773 56C69.5773 55.6701 69.484 55.3471 69.3084 55.0684L57.2701 35.9203C57.115 35.6741 56.9008 35.471 56.6472 35.3296C56.3936 35.1882 56.1088 35.1131 55.8189 35.1111ZM55.807 40.1157L65.264 55.1296L55.807 58.9154L46.35 55.1296L55.807 40.1157ZM48.0736 59.5852L55.166 62.4054C55.5776 62.5702 56.0364 62.5702 56.4481 62.4054L63.5404 59.5852L55.807 71.8843L48.0736 59.5852ZM33.9143 74.7045C36.5829 76.7544 39.3802 78.6293 42.2888 80.3177C52.023 85.9664 62.1463 89.0741 71.1098 89.7269C66.9355 95.8456 61.6008 99.5185 55.807 99.5185C46.1681 99.5185 37.8201 89.3615 33.9143 74.7045Z" fill="#FFAD4D"/>
</g>
</svg>
